<svg xmlns="http://www.w3.org/2000/svg" viewBox="0 0 128 128" role="img" aria-label="Chat">
  <defs>
    <linearGradient id="chatGradient" x1="16" y1="20" x2="112" y2="108" gradientUnits="userSpaceOnUse">
      <stop offset="0" stop-color="#007FFF" />
      <stop offset="1" stop-color="#00D5A5" />
    </linearGradient>
  </defs>
  <path fill="url(#chatGradient)" d="M64 18c-24.3 0-44 16.1-44 36 0 11.2 6.5 21.2 16.7 27.8L34 106l24-14.2c2 .2 4 .2 6 .2 24.3 0 44-16.1 44-36S88.3 18 64 18Zm-22 44a6 6 0 1 1 0-12 6 6 0 0 1 0 12Zm22 0a6 6 0 1 1 0-12 6 6 0 0 1 0 12Zm22 0a6 6 0 1 1 0-12 6 6 0 0 1 0 12Z"/>
</svg>
